<?xml version="1.0" encoding="UTF-8"?>
<svg width="34px" height="34px" viewBox="0 0 34 34" version="1.1" xmlns="http://www.w3.org/2000/svg" xmlns:xlink="http://www.w3.org/1999/xlink">
    <title>01图标/0101通用(线型)/设置</title>
    <g id="01图标/0101通用(线型)/设置" stroke="none" stroke-width="1" fill="none" fill-rule="evenodd">
        <path d="M27.9641016,6.10010452 C28.4423942,6.37397337 28.6062694,6.98052845 28.330127,7.45488322 L26.7862019,10.1073881 C27.2231037,10.7183363 27.598402,11.3659934 27.909399,12.0403743 L31,12.0411658 C31.5522847,12.0411658 32,12.4851949 32,13.0329326 L32,20.9670674 C32,21.5148051 31.5522847,21.9588342 31,21.9588342 L27.9091055,21.9598988 C27.7539057,22.2946222 27.5817327,22.6252037 27.3923048,22.950601 C27.2027065,23.2762913 26.9999302,23.5897315 26.7850296,23.8906416 L28.330127,26.5451168 C28.6062694,27.0194715 28.4423942,27.6260266 27.9641016,27.8998955 L21.0358984,31.8669628 C20.5576058,32.1408317 19.9460154,31.9783057 19.669873,31.503951 L18.1238813,28.8498441 C17.3795035,28.9199207 16.6263106,28.9214074 15.8743708,28.8516285 L14.330127,31.503951 C14.0539846,31.9783057 13.4423942,32.1408317 12.9641016,31.8669628 L6.03589838,27.8998955 C5.55760576,27.6260266 5.39373061,27.0194715 5.66987298,26.5451168 L7.2137981,23.8926119 C6.7768963,23.2816637 6.40159803,22.6340066 6.09060102,21.9596257 L3,21.9588342 C2.44771525,21.9588342 2,21.5148051 2,20.9670674 L2,13.0329326 C2,12.4851949 2.44771525,12.0411658 3,12.0411658 L6.09089451,12.0401012 C6.24609428,11.7053778 6.41826731,11.3747963 6.60769515,11.049399 C6.7972935,10.7237087 7.00006977,10.4102685 7.21497035,10.1093584 L5.66987298,7.45488322 C5.39373061,6.98052845 5.55760576,6.37397337 6.03589838,6.10010452 L12.9641016,2.13303716 C13.4423942,1.85916831 14.0539846,2.02169426 14.330127,2.49604902 L15.8761187,5.15015589 C16.6204965,5.08007929 17.3736894,5.07859265 18.1256292,5.14837147 L19.669873,2.49604902 C19.9460154,2.02169426 20.5576058,1.85916831 21.0358984,2.13303716 L27.9641016,6.10010452 Z M26.0976236,7.32175249 L20.9014712,4.34645197 L19.2162787,7.24177979 L17.9393055,7.12327871 C17.3160373,7.06544041 16.6885333,7.066124 16.0651145,7.12481338 L14.7866959,7.2451652 L13.0983715,4.3458223 L7.90179529,7.3218508 L9.58785244,10.2185388 L8.84705364,11.2558272 C8.66670756,11.5083531 8.49744747,11.7702676 8.33974596,12.0411658 C8.18218544,12.3118218 8.03822447,12.5879039 7.90798008,12.8688054 L7.3727299,14.0231935 L4.00029529,14.0238106 L3.9998715,19.9751397 L7.3752826,19.976421 L7.90939892,21.1346246 C8.16985991,21.6994208 8.48301496,22.2387227 8.84515434,22.7451257 L9.58711784,23.7826615 L7.90147118,26.6777292 L13.0976236,29.6530297 L14.7837213,26.7582202 L16.0606945,26.8767213 C16.6839627,26.9345596 17.3114667,26.933876 17.9348855,26.8751866 L19.2133041,26.7548348 L20.9012233,29.6530297 L26.0977995,26.676772 L24.4121476,23.7814612 L25.1529464,22.7441728 C25.3332924,22.4916469 25.5025525,22.2297324 25.660254,21.9588342 C25.8178146,21.6881782 25.9617755,21.4120961 26.0920199,21.1311946 L26.6272701,19.9768065 L29.9992995,19.9748121 L29.9997233,14.0234831 L26.6247174,14.023579 L26.0906011,12.8653754 C25.8301401,12.3005792 25.516985,11.7612773 25.1548457,11.2548743 L24.4128822,10.2173385 L26.0976236,7.32175249 Z M20,11.8466283 C22.8697557,13.4898414 23.8530067,17.1291719 22.1961524,19.9753005 C20.5392982,22.8214291 16.8697557,23.7965848 14,22.1533717 C11.1302443,20.5101586 10.1469933,16.8708281 11.8038476,14.0246995 C13.4607018,11.1785709 17.1302443,10.2034152 20,11.8466283 Z M19,13.5644189 C17.0868295,12.4689435 14.6404679,13.1190473 13.5358984,15.0164663 C12.4313289,16.9138854 13.0868295,19.3401057 15,20.4355811 C16.9131705,21.5310565 19.3595321,20.8809527 20.4641016,18.9835337 C21.5686711,17.0861146 20.9131705,14.6598943 19,13.5644189 Z" id="形状" fill="#2E90FA" fill-rule="nonzero"></path>
    </g>
</svg>