<?xml version="1.0" encoding="UTF-8"?>
<svg width="34px" height="34px" viewBox="0 0 34 34" version="1.1" xmlns="http://www.w3.org/2000/svg" xmlns:xlink="http://www.w3.org/1999/xlink">
    <title>01图标/0101通用(线型)/等待</title>
    <g id="01图标/0101通用(线型)/等待" stroke="none" stroke-width="1" fill="none" fill-rule="evenodd">
        <path d="M17,2 C25.2842712,2 32,8.71572875 32,17 C32,25.2842712 25.2842712,32 17,32 C8.71572875,32 2,25.2842712 2,17 C2,8.71572875 8.71572875,2 17,2 Z M17,4 C9.82029825,4 4,9.82029825 4,17 C4,24.1797017 9.82029825,30 17,30 C24.1797017,30 30,24.1797017 30,17 C30,9.82029825 24.1797017,4 17,4 Z M17,8 C17.5522847,8 18,8.44771525 18,9 L18,16 L25,16 C25.5522847,16 26,16.4477153 26,17 C26,17.5522847 25.5522847,18 25,18 L17,18 C16.4477153,18 16,17.5522847 16,17 L16,9 C16,8.44771525 16.4477153,8 17,8 Z" id="形状" fill="#2E90FA" fill-rule="nonzero"></path>
    </g>
</svg>