<?xml version="1.0" encoding="UTF-8"?>
<svg width="34px" height="34px" viewBox="0 0 34 34" version="1.1" xmlns="http://www.w3.org/2000/svg" xmlns:xlink="http://www.w3.org/1999/xlink">
    <title>01图标/0101通用(线型)/监控</title>
    <g id="01图标/0101通用(线型)/监控" stroke="none" stroke-width="1" fill="none" fill-rule="evenodd">
        <path d="M17,3 C24.1797017,3 30,8.82029825 30,16 C30,18.3068014 29.3974912,20.528122 28.269686,22.4843337 C27.5659653,23.7049582 26.6674561,24.804327 25.6124425,25.738041 L24.2869501,24.2403528 C25.1804695,23.4495653 25.9413804,22.5185546 26.5370164,21.4854062 C27.3267287,20.1156267 27.8116346,18.5931337 27.9551133,17.0008944 L27,17 C26.4477153,17 26,16.5522847 26,16 C26,15.4477153 26.4477153,15 27,15 L27.9551817,15.000274 C27.4797758,9.72324908 23.2776141,5.52078445 18.0007248,5.04490836 L18,6 C18,6.55228475 17.5522847,7 17,7 C16.4477153,7 16,6.55228475 16,6 L16.000274,5.04481833 C10.7229161,5.52025417 6.52025417,9.72291615 6.04481833,15.000274 L7,15 C7.55228475,15 8,15.4477153 8,16 C8,16.5522847 7.55228475,17 7,17 L6.04490088,17.0010601 C6.18745323,18.5827711 6.66693936,20.0957041 7.44757458,21.4585917 C8.04154711,22.4955905 8.80178816,23.4304488 9.69551351,24.2247996 L8.36685284,25.7196778 C7.311594,24.7817546 6.41386662,23.6778312 5.71209978,22.4526376 C4.59593513,20.5039593 4,18.2942066 4,16 C4,8.82029825 9.82029825,3 17,3 Z M17,11 C17.5522847,11 18,11.4477153 18,12 L18,21 L16,21 L16,12 C16,11.4477153 16.4477153,11 17,11 Z M6,28 L28,28 C28.5522847,28 29,28.4477153 29,29 C29,29.5522847 28.5522847,30 28,30 L6,30 C5.44771525,30 5,29.5522847 5,29 C5,28.4477153 5.44771525,28 6,28 Z" id="形状" fill="#2E90FA" fill-rule="nonzero"></path>
    </g>
</svg>