<?xml version="1.0" encoding="UTF-8"?>
<svg width="226px" height="43px" viewBox="0 0 226 43" version="1.1" xmlns="http://www.w3.org/2000/svg" xmlns:xlink="http://www.w3.org/1999/xlink">
    <title>编组 2</title>
    <defs>
        <polygon id="path-1" points="2.84217094e-14 0 8.485 0 8.485 8.4862 2.84217094e-14 8.4862"></polygon>
        <polygon id="path-3" points="0 42.519 225.434 42.519 225.434 0 0 0"></polygon>
    </defs>
    <g id="运营端v1.4.0" stroke="none" stroke-width="1" fill="none" fill-rule="evenodd">
        <g id="编组">
            <g transform="translate(216.948900, 0.000000)">
                <mask id="mask-2" fill="white">
                    <use xlink:href="#path-1"></use>
                </mask>
                <g id="Clip-2"></g>
                <path d="M4.243,7.9292 C2.206,7.9292 0.555,6.2792 0.555,4.2412 C0.555,2.2052 2.206,0.5542 4.243,0.5542 C6.279,0.5542 7.931,2.2052 7.931,4.2412 C7.931,6.2792 6.279,7.9292 4.243,7.9292 M4.243,-0.0008 C1.9,-0.0008 2.84217094e-14,1.8982 2.84217094e-14,4.2412 C2.84217094e-14,6.5852 1.9,8.4862 4.243,8.4862 C6.586,8.4862 8.485,6.5852 8.485,4.2412 C8.485,1.8982 6.586,-0.0008 4.243,-0.0008" id="Fill-1" fill="#231916" mask="url(#mask-2)"></path>
            </g>
            <path d="M220.0415,4.1167 L220.9335,4.1167 C221.7555,4.1167 222.2085,3.7887 222.2085,3.1067 C222.2085,2.4097 221.7555,2.1587 220.9335,2.1587 L220.0415,2.1587 L220.0415,4.1167 Z M222.2705,6.7907 L220.9975,4.5917 L220.0415,4.5917 L220.0415,6.7907 L219.4645,6.7907 L219.4645,1.6917 L221.0235,1.6917 C222.0625,1.6917 222.7865,2.0617 222.7865,3.1067 C222.7865,3.9077 222.3195,4.3747 221.6035,4.5337 L222.9195,6.7907 L222.2705,6.7907 Z" id="Fill-3" fill="#231916"></path>
            <mask id="mask-4" fill="white">
                <use xlink:href="#path-3"></use>
            </mask>
            <g id="Clip-6"></g>
            <polygon id="Fill-5" fill="#231916" mask="url(#mask-4)" points="104.917 42.519 109.235 42.519 109.235 5.804 104.917 5.804"></polygon>
            <polygon id="Fill-7" fill="#231916" mask="url(#mask-4)" points="152.607 41.751 156.925 41.751 156.925 5.833 152.607 5.833"></polygon>
            <polygon id="Fill-8" fill="#231916" mask="url(#mask-4)" points="106.135 10.148 156.254 10.148 156.254 5.83 106.135 5.83"></polygon>
            <polygon id="Fill-9" fill="#231916" mask="url(#mask-4)" points="120.815 33.427 125.133 33.427 125.133 8.371 120.815 8.371"></polygon>
            <polygon id="Fill-10" fill="#231916" mask="url(#mask-4)" points="135.972 33.427 140.288 33.427 140.288 8.371 135.972 8.371"></polygon>
            <polygon id="Fill-11" fill="#231916" mask="url(#mask-4)" points="139.674 33.429 147.471 33.429 147.471 29.111 139.674 29.111"></polygon>
            <polygon id="Fill-12" fill="#231916" mask="url(#mask-4)" points="161.621 10.072 169.734 10.072 169.734 5.754 161.621 5.754"></polygon>
            <polygon id="Fill-13" fill="#231916" mask="url(#mask-4)" points="165.431 33.609 169.748 33.609 169.748 6.496 165.431 6.496"></polygon>
            <polygon id="Fill-14" fill="#231916" mask="url(#mask-4)" points="173.834 10.502 214.472 10.502 214.472 6.181 173.834 6.181"></polygon>
            <polygon id="Fill-15" fill="#231916" mask="url(#mask-4)" points="192.121 7.655 196.438 7.655 196.438 1.933 192.121 1.933"></polygon>
            <polygon id="Fill-16" fill="#231916" mask="url(#mask-4)" points="173.834 18.178 214.472 18.178 214.472 13.859 173.834 13.859"></polygon>
            <polygon id="Fill-17" fill="#231916" mask="url(#mask-4)" points="173.834 25.373 214.472 25.373 214.472 21.057 173.834 21.057"></polygon>
            <polygon id="Fill-18" fill="#231916" mask="url(#mask-4)" points="173.834 33.435 214.472 33.435 214.472 29.119 173.834 29.119"></polygon>
            <polygon id="Fill-19" fill="#231916" mask="url(#mask-4)" points="105.048 42.484 214.448 42.484 214.448 38.168 105.048 38.168"></polygon>
            <polygon id="Fill-20" fill="#231916" mask="url(#mask-4)" points="210.126 41.53 214.442 41.53 214.442 29.756 210.126 29.756"></polygon>
            <polygon id="Fill-21" fill="#161B59" mask="url(#mask-4)" points="22.7354 -0.0005 22.9634 0.1035 44.0544 10.6355 44.0604 15.3145 27.0584 6.8245 27.0584 28.3945 22.7354 28.3945 22.7354 0.1275"></polygon>
            <polygon id="Fill-22" fill="#161B59" mask="url(#mask-4)" points="69.1113 -0.0005 68.8843 0.1035 47.7923 10.6355 47.7863 15.3145 64.7883 6.8245 64.7883 28.3945 69.1113 28.3945 69.1113 0.1275"></polygon>
            <path d="M91.8462,1.0513 C80.5962,15.4823 64.5892,23.5053 45.9232,23.5053 C27.2592,23.5053 10.6462,14.7163 0.0002,1.0513 C11.0552,14.0423 35.0132,19.4923 45.9232,19.4923 C56.1022,19.4923 80.7912,14.0423 91.8462,1.0513" id="Fill-23" fill="#FCD000" mask="url(#mask-4)"></path>
            <polygon id="Fill-24" fill="#231916" mask="url(#mask-4)" points="10.7471 35.4331 4.1601 35.4331 4.1601 37.3741 10.6081 37.3741 10.6081 38.7511 4.1601 38.7511 4.1601 42.3471 2.4181 42.3471 2.4181 34.0541 10.7471 34.0541"></polygon>
            <path d="M18.876,39.2407 L18.876,39.2407 C18.876,38.4417 18.628,37.8447 18.133,37.4567 C17.638,37.0677 16.95,36.8707 16.071,36.8707 C15.179,36.8707 14.488,37.0677 13.996,37.4567 C13.503,37.8447 13.257,38.4417 13.257,39.2407 C13.257,40.0177 13.505,40.6037 14,41.0047 C14.496,41.4057 15.185,41.6057 16.071,41.6057 C16.944,41.6057 17.631,41.4077 18.129,41.0107 C18.627,40.6137 18.876,40.0237 18.876,39.2407 M20.581,39.2407 C20.581,40.2537 20.172,41.0537 19.355,41.6397 C18.538,42.2257 17.442,42.5187 16.071,42.5187 C14.687,42.5187 13.588,42.2257 12.774,41.6397 C11.96,41.0537 11.553,40.2537 11.553,39.2407 C11.553,38.2297 11.96,37.4277 12.774,36.8427 C13.588,36.2537 14.687,35.9607 16.071,35.9607 C17.442,35.9607 18.538,36.2537 19.355,36.8427 C20.172,37.4277 20.581,38.2297 20.581,39.2407" id="Fill-25" fill="#231916" mask="url(#mask-4)"></path>
            <path d="M31.2808,42.3472 L29.6288,42.3472 L29.6288,41.6552 C29.0728,41.9342 28.5398,42.1482 28.0308,42.2962 C27.5218,42.4442 26.9598,42.5192 26.3448,42.5192 C25.3138,42.5192 24.5108,42.3172 23.9378,41.9212 C23.3648,41.5212 23.0778,40.9372 23.0778,40.1632 L23.0778,36.1302 L24.7288,36.1302 L24.7288,39.6722 C24.7288,39.9882 24.7518,40.2582 24.7988,40.4822 C24.8458,40.7062 24.9458,40.8982 25.0988,41.0582 C25.2548,41.2202 25.4608,41.3412 25.7118,41.4142 C25.9648,41.4882 26.3298,41.5272 26.8098,41.5272 C27.2378,41.5272 27.7048,41.4542 28.2118,41.3142 C28.7168,41.1732 29.1898,40.9922 29.6288,40.7742 L29.6288,36.1302 L31.2808,36.1302 L31.2808,42.3472 Z" id="Fill-26" fill="#231916" mask="url(#mask-4)"></path>
            <path d="M40.6113,37.271 L40.5233,37.271 C40.2773,37.236 40.0393,37.21 39.8073,37.194 C39.5753,37.176 39.3023,37.169 38.9873,37.169 C38.4773,37.169 37.9853,37.242 37.5113,37.382 C37.0373,37.527 36.5803,37.709 36.1423,37.937 L36.1423,42.347 L34.4903,42.347 L34.4903,36.13 L36.1423,36.13 L36.1423,37.049 C36.7973,36.714 37.3753,36.479 37.8753,36.339 C38.3763,36.201 38.8873,36.13 39.4073,36.13 C39.6943,36.13 39.9033,36.135 40.0313,36.145 C40.1603,36.153 40.3533,36.17 40.6113,36.198 L40.6113,37.271 Z" id="Fill-27" fill="#231916" mask="url(#mask-4)"></path>
            <polygon id="Fill-28" fill="#231916" mask="url(#mask-4)" points="41.752 39.21 47.227 39.21 47.227 38.218 41.752 38.218"></polygon>
            <polygon id="Fill-29" fill="#231916" mask="url(#mask-4)" points="58.6377 35.4331 52.0497 35.4331 52.0497 37.3741 58.4967 37.3741 58.4967 38.7511 52.0497 38.7511 52.0497 42.3471 50.3077 42.3471 50.3077 34.0541 58.6377 34.0541"></polygon>
            <path d="M65.7241,40.8149 L65.7241,40.8149 L65.7241,39.0739 C65.2231,39.0909 64.6351,39.1209 63.9581,39.1579 C63.2791,39.1949 62.7441,39.2499 62.3481,39.3199 C61.8771,39.4059 61.4951,39.5409 61.2051,39.7199 C60.9141,39.9019 60.7691,40.1519 60.7691,40.4679 C60.7691,40.8259 60.9391,41.0949 61.2761,41.2779 C61.6131,41.4599 62.1271,41.5479 62.8181,41.5479 C63.3951,41.5479 63.9211,41.4769 64.3991,41.3329 C64.8751,41.1889 65.3161,41.0149 65.7241,40.8149 L65.7241,40.8149 Z M67.3741,42.3469 L65.7241,42.3469 L65.7241,41.6809 C65.5781,41.7459 65.3821,41.8339 65.1331,41.9469 C64.8871,42.0589 64.6451,42.1499 64.4131,42.2159 C64.1401,42.3029 63.8251,42.3749 63.4691,42.4319 C63.1141,42.4899 62.6971,42.5189 62.2191,42.5189 C61.3391,42.5189 60.5931,42.3329 59.9821,41.9599 C59.3701,41.5879 59.0661,41.1149 59.0661,40.5389 C59.0661,40.0679 59.2241,39.6839 59.5401,39.3919 C59.8581,39.0999 60.3101,38.8709 60.8991,38.7059 C61.4941,38.5369 62.2071,38.4229 63.0401,38.3619 C63.8731,38.3039 64.7681,38.2599 65.7241,38.2299 L65.7241,38.0659 C65.7241,37.8269 65.6571,37.6299 65.5271,37.4709 C65.3961,37.3159 65.2071,37.1929 64.9631,37.1029 C64.7301,37.0169 64.4501,36.9589 64.1231,36.9289 C63.7971,36.8999 63.4551,36.8819 63.0991,36.8819 C62.6691,36.8819 62.1881,36.9209 61.6581,36.9949 C61.1261,37.0699 60.5781,37.1759 60.0131,37.3169 L59.9251,37.3169 L59.9251,36.2549 C60.2471,36.1989 60.7121,36.1379 61.3201,36.0719 C61.9261,36.0039 62.5251,35.9719 63.1161,35.9719 C63.8061,35.9719 64.4051,36.0059 64.9161,36.0799 C65.4291,36.1519 65.8711,36.2749 66.2441,36.4489 C66.6121,36.6209 66.8931,36.8419 67.0851,37.1149 C67.2791,37.3859 67.3741,37.7209 67.3741,38.1219 L67.3741,42.3469 Z" id="Fill-30" fill="#231916" mask="url(#mask-4)"></path>
            <path d="M72.1846,42.3472 L72.1846,42.3472 L70.5336,42.3472 L70.5336,36.1302 L72.1846,36.1302 L72.1846,42.3472 Z M70.4256,35.0812 L72.2926,35.0812 L72.2926,33.9992 L70.4256,33.9992 L70.4256,35.0812 Z" id="Fill-31" fill="#231916" mask="url(#mask-4)"></path>
            <path d="M80.5586,42.2934 C80.2496,42.3474 79.9126,42.3884 79.5486,42.4224 C79.1816,42.4554 78.8576,42.4724 78.5716,42.4724 C77.5736,42.4724 76.8146,42.3034 76.2946,41.9594 C75.7746,41.6164 75.5156,41.0714 75.5156,40.3164 L75.5156,37.0084 L74.4026,37.0084 L74.4026,36.1304 L75.5156,36.1304 L75.5156,34.3404 L77.1656,34.3404 L77.1656,36.1304 L80.5586,36.1304 L80.5586,37.0084 L77.1656,37.0084 L77.1656,39.8474 C77.1656,40.1754 77.1776,40.4304 77.2016,40.6154 C77.2256,40.8004 77.3056,40.9694 77.4456,41.1314 C77.5736,41.2784 77.7506,41.3884 77.9746,41.4564 C78.1986,41.5264 78.5416,41.5594 79.0016,41.5594 C79.2716,41.5594 79.5506,41.5344 79.8426,41.4814 C80.1326,41.4314 80.3436,41.3884 80.4706,41.3564 L80.5586,41.3564 L80.5586,42.2934 Z" id="Fill-32" fill="#231916" mask="url(#mask-4)"></path>
            <path d="M90.7593,42.3472 L89.1093,42.3472 L89.1093,38.8072 C89.1093,38.5212 89.0813,38.2502 89.0303,38.0022 C88.9773,37.7492 88.8803,37.5562 88.7393,37.4132 C88.5933,37.2582 88.3823,37.1422 88.1073,37.0662 C87.8313,36.9912 87.4743,36.9522 87.0363,36.9522 C86.5853,36.9522 86.1133,37.0232 85.6213,37.1632 C85.1293,37.3052 84.6583,37.4862 84.2093,37.7032 L84.2093,42.3472 L82.5573,42.3472 L82.5573,33.6782 L84.2093,33.6782 L84.2093,36.8212 C84.7233,36.5522 85.2563,36.3392 85.8073,36.1872 C86.3563,36.0352 86.9223,35.9602 87.5023,35.9602 C88.5613,35.9602 89.3683,36.1622 89.9263,36.5662 C90.4813,36.9712 90.7593,37.5522 90.7593,38.3132 L90.7593,42.3472 Z" id="Fill-33" fill="#231916" mask="url(#mask-4)"></path>
        </g>
    </g>
</svg>