<?xml version="1.0" encoding="UTF-8"?>
<svg width="142px" height="93px" viewBox="0 0 142 93" version="1.1" xmlns="http://www.w3.org/2000/svg" xmlns:xlink="http://www.w3.org/1999/xlink">
    <title>编组</title>
    <defs>
        <polygon id="path-1" points="0 0 130.9146 0 130.9146 32.007 0 32.007"></polygon>
        <polygon id="path-3" points="0 93.002 141.732 93.002 141.732 0 0 0"></polygon>
    </defs>
    <g id="运营端v1.4.0" stroke="none" stroke-width="1" fill="none" fill-rule="evenodd">
        <g id="编组">
            <polygon id="Fill-1" fill="#231916" points="32.238 92.981 98.741 92.981 98.741 90.357 32.238 90.357"></polygon>
            <polygon id="Fill-2" fill="#231916" points="32.159 93.002 34.784 93.002 34.784 70.685 32.159 70.685"></polygon>
            <polygon id="Fill-3" fill="#231916" points="61.15 92.535 63.774 92.535 63.774 70.702 61.15 70.702"></polygon>
            <polygon id="Fill-4" fill="#231916" points="32.901 73.325 63.366 73.325 63.366 70.7 32.901 70.7"></polygon>
            <polygon id="Fill-5" fill="#231916" points="41.823 87.476 44.448 87.476 44.448 72.245 41.823 72.245"></polygon>
            <polygon id="Fill-6" fill="#231916" points="51.036 87.476 53.661 87.476 53.661 72.245 51.036 72.245"></polygon>
            <polygon id="Fill-7" fill="#231916" points="53.287 87.478 58.026 87.478 58.026 84.853 53.287 84.853"></polygon>
            <polygon id="Fill-8" fill="#231916" points="66.628 73.278 71.561 73.278 71.561 70.653 66.628 70.653"></polygon>
            <polygon id="Fill-9" fill="#231916" points="68.943 87.585 71.568 87.585 71.568 71.105 68.943 71.105"></polygon>
            <polygon id="Fill-10" fill="#231916" points="74.052 73.54 98.755 73.54 98.755 70.915 74.052 70.915"></polygon>
            <polygon id="Fill-11" fill="#231916" points="85.168 71.81 87.793 71.81 87.793 68.331 85.168 68.331"></polygon>
            <polygon id="Fill-12" fill="#231916" points="74.052 78.206 98.755 78.206 98.755 75.581 74.052 75.581"></polygon>
            <polygon id="Fill-13" fill="#231916" points="74.052 82.581 98.755 82.581 98.755 79.956 74.052 79.956"></polygon>
            <polygon id="Fill-14" fill="#231916" points="74.052 87.48 98.755 87.48 98.755 84.855 74.052 84.855"></polygon>
            <polygon id="Fill-15" fill="#231916" points="96.114 92.401 98.738 92.401 98.738 85.244 96.114 85.244"></polygon>
            <polygon id="Fill-16" fill="#161B59" points="32.4068 1.7617 32.7288 1.9077 62.7928 16.9217 62.8028 23.5927 38.5678 11.4907 38.5678 42.2347 32.4068 42.2347 32.4068 1.9447"></polygon>
            <polygon id="Fill-17" fill="#161B59" points="98.5083 1.7617 98.1853 1.9077 68.1213 16.9217 68.1123 23.5927 92.3473 11.4907 92.3473 42.2347 98.5083 42.2347 98.5083 1.9447"></polygon>
            <g>
                <g transform="translate(0.000000, 3.259800)">
                    <mask id="mask-2" fill="white">
                        <use xlink:href="#path-1"></use>
                    </mask>
                    <g id="Clip-19"></g>
                    <path d="M130.9146,0 C114.8776,20.569 92.0626,32.007 65.4576,32.007 C38.8526,32.007 15.1746,19.479 -0.0004,0 C15.7586,18.519 49.9076,26.288 65.4576,26.288 C79.9656,26.288 115.1566,18.519 130.9146,0" id="Fill-18" fill="#FCD000" mask="url(#mask-2)"></path>
                </g>
                <polygon id="Fill-20" fill="#161B59" points="15.3189 52.2671 5.9289 52.2671 5.9289 55.0341 15.1209 55.0341 15.1209 56.9971 5.9289 56.9971 5.9289 62.1211 3.4469 62.1211 3.4469 50.3031 15.3189 50.3031"></polygon>
                <path d="M26.9043,57.6958 L26.9043,57.6958 C26.9043,56.5538 26.5513,55.7058 25.8453,55.1508 C25.1403,54.5958 24.1603,54.3188 22.9063,54.3188 C21.6363,54.3188 20.6503,54.5958 19.9483,55.1508 C19.2473,55.7058 18.8963,56.5538 18.8963,57.6958 C18.8963,58.7998 19.2493,59.6368 19.9553,60.2088 C20.6613,60.7798 21.6443,61.0648 22.9063,61.0648 C24.1523,61.0648 25.1303,60.7818 25.8403,60.2158 C26.5503,59.6508 26.9043,58.8108 26.9043,57.6958 M29.3353,57.6958 C29.3353,59.1388 28.7533,60.2778 27.5873,61.1128 C26.4223,61.9478 24.8623,62.3648 22.9063,62.3648 C20.9343,62.3648 19.3683,61.9478 18.2073,61.1128 C17.0473,60.2778 16.4663,59.1388 16.4663,57.6958 C16.4663,56.2528 17.0473,55.1128 18.2073,54.2748 C19.3683,53.4368 20.9343,53.0178 22.9063,53.0178 C24.8623,53.0178 26.4223,53.4368 27.5873,54.2748 C28.7533,55.1128 29.3353,56.2528 29.3353,57.6958" id="Fill-22" fill="#161B59"></path>
                <path d="M44.5855,62.1216 L42.2315,62.1216 L42.2315,61.1366 C41.4395,61.5326 40.6795,61.8366 39.9535,62.0486 C39.2275,62.2596 38.4265,62.3656 37.5505,62.3656 C36.0815,62.3656 34.9375,62.0806 34.1195,61.5126 C33.3025,60.9446 32.8935,60.1106 32.8935,59.0106 L32.8935,53.2616 L35.2465,53.2616 L35.2465,58.3086 C35.2465,58.7586 35.2805,59.1426 35.3475,59.4626 C35.4145,59.7836 35.5555,60.0566 35.7725,60.2846 C35.9985,60.5176 36.2905,60.6866 36.6485,60.7916 C37.0075,60.8976 37.5295,60.9506 38.2135,60.9506 C38.8225,60.9506 39.4885,60.8506 40.2105,60.6496 C40.9325,60.4486 41.6065,60.1916 42.2315,59.8796 L42.2315,53.2616 L44.5855,53.2616 L44.5855,62.1216 Z" id="Fill-24" fill="#161B59"></path>
                <path d="M57.8858,54.8872 L57.7608,54.8872 C57.4098,54.8352 57.0698,54.7992 56.7398,54.7752 C56.4108,54.7522 56.0208,54.7412 55.5698,54.7412 C54.8438,54.7412 54.1428,54.8422 53.4668,55.0462 C52.7908,55.2502 52.1408,55.5122 51.5148,55.8352 L51.5148,62.1212 L49.1608,62.1212 L49.1608,53.2622 L51.5148,53.2622 L51.5148,54.5702 C52.4488,54.0952 53.2728,53.7582 53.9868,53.5592 C54.6998,53.3602 55.4278,53.2622 56.1708,53.2622 C56.5798,53.2622 56.8758,53.2682 57.0588,53.2822 C57.2428,53.2952 57.5178,53.3202 57.8858,53.3572 L57.8858,54.8872 Z" id="Fill-26" fill="#161B59"></path>
                <mask id="mask-4" fill="white">
                    <use xlink:href="#path-3"></use>
                </mask>
                <g id="Clip-29"></g>
                <polygon id="Fill-28" fill="#161B59" mask="url(#mask-4)" points="59.511 57.651 67.315 57.651 67.315 56.236 59.511 56.236"></polygon>
                <polygon id="Fill-30" fill="#161B59" mask="url(#mask-4)" points="83.5786 52.2671 74.1886 52.2671 74.1886 55.0341 83.3796 55.0341 83.3796 56.9971 74.1886 56.9971 74.1886 62.1211 71.7066 62.1211 71.7066 50.3031 83.5786 50.3031"></polygon>
                <path d="M93.6802,59.9375 L93.6802,59.9375 L93.6802,57.4555 C92.9672,57.4815 92.1282,57.5225 91.1622,57.5755 C90.1972,57.6295 89.4332,57.7065 88.8692,57.8075 C88.1972,57.9295 87.6542,58.1195 87.2402,58.3775 C86.8262,58.6365 86.6182,58.9905 86.6182,59.4425 C86.6182,59.9535 86.8592,60.3385 87.3402,60.5965 C87.8202,60.8545 88.5532,60.9835 89.5402,60.9835 C90.3602,60.9835 91.1112,60.8815 91.7902,60.6765 C92.4702,60.4715 93.1002,60.2255 93.6802,59.9375 L93.6802,59.9375 Z M96.0332,62.1215 L93.6802,62.1215 L93.6802,61.1725 C93.4722,61.2635 93.1922,61.3895 92.8392,61.5505 C92.4862,61.7115 92.1432,61.8405 91.8112,61.9355 C91.4212,62.0575 90.9722,62.1605 90.4662,62.2425 C89.9592,62.3245 89.3662,62.3655 88.6852,62.3655 C87.4312,62.3655 86.3682,62.1005 85.4952,61.5705 C84.6242,61.0405 84.1882,60.3645 84.1882,59.5435 C84.1882,58.8705 84.4142,58.3265 84.8662,57.9105 C85.3202,57.4945 85.9652,57.1665 86.8042,56.9285 C87.6512,56.6905 88.6682,56.5275 89.8562,56.4435 C91.0432,56.3585 92.3182,56.2945 93.6802,56.2525 L93.6802,56.0205 C93.6802,55.6795 93.5862,55.3975 93.3992,55.1745 C93.2132,54.9495 92.9442,54.7735 92.5952,54.6465 C92.2632,54.5235 91.8642,54.4415 91.3992,54.3985 C90.9342,54.3555 90.4472,54.3345 89.9402,54.3345 C89.3262,54.3345 88.6402,54.3875 87.8842,54.4935 C87.1282,54.5985 86.3472,54.7515 85.5402,54.9525 L85.4162,54.9525 L85.4162,53.4385 C85.8742,53.3585 86.5362,53.2715 87.4022,53.1765 C88.2682,53.0815 89.1222,53.0345 89.9632,53.0345 C90.9452,53.0345 91.8012,53.0855 92.5292,53.1885 C93.2592,53.2915 93.8892,53.4685 94.4222,53.7165 C94.9472,53.9605 95.3472,54.2755 95.6212,54.6625 C95.8962,55.0495 96.0332,55.5285 96.0332,56.1005 L96.0332,62.1215 Z" id="Fill-31" fill="#161B59" mask="url(#mask-4)"></path>
                <path d="M102.8897,62.1216 L102.8897,62.1216 L100.5357,62.1216 L100.5357,53.2616 L102.8897,53.2616 L102.8897,62.1216 Z M100.3807,51.7666 L103.0417,51.7666 L103.0417,50.2226 L100.3807,50.2226 L100.3807,51.7666 Z" id="Fill-32" fill="#161B59" mask="url(#mask-4)"></path>
                <path d="M114.8247,62.0464 C114.3847,62.1204 113.9037,62.1814 113.3837,62.2284 C112.8637,62.2764 112.3997,62.3004 111.9917,62.3004 C110.5687,62.3004 109.4877,62.0564 108.7467,61.5694 C108.0067,61.0824 107.6357,60.3024 107.6357,59.2284 L107.6357,54.5134 L106.0497,54.5134 L106.0497,53.2614 L107.6357,53.2614 L107.6357,50.7094 L109.9907,50.7094 L109.9907,53.2614 L114.8247,53.2614 L114.8247,54.5134 L109.9907,54.5134 L109.9907,58.5594 C109.9907,59.0254 110.0057,59.3904 110.0397,59.6524 C110.0737,59.9144 110.1887,60.1594 110.3877,60.3874 C110.5707,60.5994 110.8227,60.7544 111.1427,60.8524 C111.4627,60.9504 111.9497,60.9994 112.6067,60.9994 C112.9897,60.9994 113.3877,60.9634 113.8037,60.8894 C114.2187,60.8164 114.5177,60.7554 114.6997,60.7074 L114.8247,60.7074 L114.8247,62.0464 Z" id="Fill-33" fill="#161B59" mask="url(#mask-4)"></path>
                <path d="M129.3652,62.1216 L127.0112,62.1216 L127.0112,57.0746 C127.0112,56.6676 126.9732,56.2856 126.8982,55.9286 C126.8232,55.5706 126.6852,55.2916 126.4852,55.0906 C126.2772,54.8686 125.9762,54.7036 125.5842,54.5946 C125.1922,54.4866 124.6822,54.4326 124.0562,54.4326 C123.4142,54.4326 122.7422,54.5326 122.0412,54.7336 C121.3402,54.9346 120.6692,55.1916 120.0262,55.5036 L120.0262,62.1216 L117.6722,62.1216 L117.6722,49.7666 L120.0262,49.7666 L120.0262,54.2466 C120.7612,53.8606 121.5202,53.5596 122.3052,53.3436 C123.0892,53.1256 123.8942,53.0176 124.7202,53.0176 C126.2302,53.0176 127.3832,53.3066 128.1762,53.8816 C128.9682,54.4586 129.3652,55.2886 129.3652,56.3726 L129.3652,62.1216 Z" id="Fill-34" fill="#161B59" mask="url(#mask-4)"></path>
                <path d="M138.582,5.8887 C137.07,5.8887 135.844,4.6627 135.844,3.1507 C135.844,1.6387 137.07,0.4117 138.582,0.4117 C140.095,0.4117 141.32,1.6387 141.32,3.1507 C141.32,4.6627 140.095,5.8887 138.582,5.8887 M138.582,-0.0003 C136.842,-0.0003 135.432,1.4097 135.432,3.1507 C135.432,4.8907 136.842,6.3017 138.582,6.3017 C140.322,6.3017 141.732,4.8907 141.732,3.1507 C141.732,1.4097 140.322,-0.0003 138.582,-0.0003" id="Fill-35" fill="#231916" mask="url(#mask-4)"></path>
                <path d="M137.728,3.0571 L138.39,3.0571 C139,3.0571 139.337,2.8141 139.337,2.3071 C139.337,1.7891 139,1.6031 138.39,1.6031 L137.728,1.6031 L137.728,3.0571 Z M139.383,5.0431 L138.437,3.4091 L137.728,3.4091 L137.728,5.0431 L137.299,5.0431 L137.299,1.2571 L138.458,1.2571 C139.228,1.2571 139.766,1.5311 139.766,2.3071 C139.766,2.9011 139.419,3.2481 138.887,3.3671 L139.865,5.0431 L139.383,5.0431 Z" id="Fill-36" fill="#231916" mask="url(#mask-4)"></path>
            </g>
        </g>
    </g>
</svg>