<svg t="1706982165216" class="icon" viewBox="0 0 1024 1024" version="1.1" xmlns="http://www.w3.org/2000/svg" p-id="2313" width="16" height="16"><path d="M512 549.290667a227.754667 227.754667 0 1 1 227.754667-227.669334A228.010667 228.010667 0 0 1 512 549.290667zM512 162.133333a159.488 159.488 0 1 0 159.488 159.488A159.658667 159.658667 0 0 0 512 162.133333zM914.773333 930.133333H109.226667a34.133333 34.133333 0 0 1-34.133334-34.133333V763.904C75.093333 661.418667 279.210667 571.733333 512 571.733333s436.906667 89.941333 436.906667 192.426667V896a34.133333 34.133333 0 0 1-34.133334 34.133333z m-771.413333-68.266666h737.28V763.904C880.64 727.04 737.621333 640 512 640S143.36 727.04 143.36 763.904z" p-id="2314"></path></svg>