<?xml version="1.0" encoding="UTF-8"?>
<svg width="34px" height="34px" viewBox="0 0 34 34" version="1.1" xmlns="http://www.w3.org/2000/svg" xmlns:xlink="http://www.w3.org/1999/xlink">
    <title>01图标/0101通用(线型)/调度</title>
    <g id="01图标/0101通用(线型)/调度" stroke="none" stroke-width="1" fill="none" fill-rule="evenodd">
        <path d="M22.7071068,6.46446609 C23.0976311,6.85499039 23.0976311,7.48815536 22.7071068,7.87867966 L21.585,9 L29.9787243,9 C30.531009,9 30.9787243,9.44771525 30.9787243,10 L30.9787243,24 C30.9787243,24.5522847 30.531009,25 29.9787243,25 L21.585,25 L22.7071068,26.1213203 C23.0697365,26.48395 23.0956386,27.0557954 22.7848131,27.4483131 L22.7071068,27.5355339 C22.3165825,27.9260582 21.6834175,27.9260582 21.2928932,27.5355339 L17.7573593,24 L21.2928932,20.4644661 C21.6834175,20.0739418 22.3165825,20.0739418 22.7071068,20.4644661 C23.0976311,20.8549904 23.0976311,21.4881554 22.7071068,21.8786797 L21.585,23 L28.9779728,23 L28.9779728,11 L21.585,11 L22.7071068,12.1213203 C23.0697365,12.48395 23.0956386,13.0557954 22.7848131,13.4483131 L22.7071068,13.5355339 C22.3165825,13.9260582 21.6834175,13.9260582 21.2928932,13.5355339 L17.7573593,10 L21.2928932,6.46446609 C21.6834175,6.0739418 22.3165825,6.0739418 22.7071068,6.46446609 Z M15,4 L5,4 C4.44771525,4 4,4.44771525 4,5 L4,15 C4,15.5522847 4.44771525,16 5,16 L15,16 C15.5522847,16 16,15.5522847 16,15 L16,5 C16,4.44771525 15.5522847,4 15,4 Z M14,6 L14,14 L6,14 L6,6 L14,6 Z M15,18 L5,18 C4.44771525,18 4,18.4477153 4,19 L4,29 C4,29.5522847 4.44771525,30 5,30 L15,30 C15.5522847,30 16,29.5522847 16,29 L16,19 C16,18.4477153 15.5522847,18 15,18 Z M14,20 L14,28 L6,28 L6,20 L14,20 Z" id="形状" fill="#2E90FA" fill-rule="nonzero"></path>
    </g>
</svg>