<?xml version="1.0" encoding="UTF-8"?>
<svg width="34px" height="34px" viewBox="0 0 34 34" version="1.1" xmlns="http://www.w3.org/2000/svg"
  xmlns:xlink="http://www.w3.org/1999/xlink">
  <title>规范/03图标/00通用(面型)/展开</title>
  <defs>
    <path
      d="M0,0 C0,0 25.5,0 25.5,0 C25.5,0 25.5,4.25 25.5,4.25 C25.5,4.25 0,4.25 0,4.25 C0,4.25 0,0 0,0 Z M0,8.5 C0,8.5 17,8.5 17,8.5 C17,8.5 17,12.75 17,12.75 C17,12.75 0,12.75 0,12.75 C0,12.75 0,8.5 0,8.5 Z M0,17 C0,17 25.5,17 25.5,17 C25.5,17 25.5,21.25 25.5,21.25 C25.5,21.25 0,21.25 0,21.25 C0,21.25 0,17 0,17 Z M19.125,6.38996 C19.125,6.38996 25.5,10.625 25.5,10.625 C25.5,10.625 19.125,14.875 19.125,14.875 C19.125,14.875 19.125,6.38996 19.125,6.38996 Z"
      id="path-1"></path>
  </defs>
  <g id="规范/03图标/00通用(面型)/展开" stroke="none" stroke-width="1" fill-rule="evenodd">
    <g id="四信/01色彩/01品牌色/06蓝(参考色)" transform="translate(4.250000, 6.375000)">
      <mask id="mask-2">
        <use xlink:href="#path-1"></use>
      </mask>
      <use id="蒙版" fill-rule="nonzero" xlink:href="#path-1"></use>
      <g mask="url(#mask-2)" id="矩形备份-2">
        <g transform="translate(-4.250000, -6.375000)">
          <rect x="0" y="0" width="34" height="34"></rect>
        </g>
      </g>
    </g>
  </g>
</svg>
