<svg t="1709795326412" class="icon" viewBox="0 0 1024 1024" version="1.1" xmlns="http://www.w3.org/2000/svg" p-id="3373" width="200" height="200"><path d="M1024 540.7744h-56.99584v57.9584H1024v-57.9584zM1024 483.0208h-56.99584v57.7536H1024v-57.7536z" fill="#000000" p-id="3374"></path><path d="M1024 425.28768h-56.99584v57.7536H1024v-57.7536zM1024 367.32928h-56.99584v57.9584H1024v-57.9584zM967.00416 598.71232h-56.79104v57.7536h56.79104v-57.7536z" fill="#000000" p-id="3375"></path><path d="M967.00416 540.7744h-56.79104v57.9584h56.79104v-57.9584zM967.00416 483.0208h-56.79104v57.7536h56.79104v-57.7536z" fill="#D80027" p-id="3376"></path><path d="M967.00416 425.28768h-56.79104v57.7536h56.79104v-57.7536zM967.00416 367.32928h-56.79104v57.9584h56.79104v-57.9584z" fill="#D80027" p-id="3377"></path><path d="M967.00416 309.59616h-56.79104v57.7536h56.79104v-57.7536zM910.21312 598.71232H853.1968v57.7536h56.99584v-57.7536z" fill="#000000" p-id="3378"></path><path d="M910.21312 540.7744H853.1968v57.9584h56.99584v-57.9584zM910.21312 483.0208H853.1968v57.7536h56.99584v-57.7536z" fill="#D80027" p-id="3379"></path><path d="M910.21312 425.28768H853.1968v57.7536h56.99584v-57.7536zM910.21312 367.32928H853.1968v57.9584h56.99584v-57.9584z" fill="#D80027" p-id="3380"></path><path d="M910.21312 309.59616H853.1968v57.7536h56.99584v-57.7536zM910.21312 251.65824H853.1968v57.93792h56.99584v-57.9584zM853.1968 598.71232h-56.79104v57.7536h56.79104v-57.7536z" fill="#000000" p-id="3381"></path><path d="M853.1968 540.7744h-56.79104v57.9584h56.79104v-57.9584zM853.1968 483.0208h-56.79104v57.7536h56.79104v-57.7536z" fill="#D80027" p-id="3382"></path><path d="M853.1968 425.28768h-56.79104v57.7536h56.79104v-57.7536zM853.1968 367.32928h-56.79104v57.9584h56.79104v-57.9584z" fill="#D80027" p-id="3383"></path><path d="M853.1968 309.59616h-56.79104v57.7536h56.79104v-57.7536zM853.1968 251.65824h-56.79104v57.93792h56.79104v-57.9584z" fill="#D80027" p-id="3384"></path><path d="M853.1968 193.90464h-56.79104v57.7536h56.79104v-57.7536zM853.1968 136.15104h-56.79104v57.7536h56.79104v-57.7536zM796.40576 598.71232h-56.81152v57.7536h56.81152v-57.7536z" fill="#000000" p-id="3385"></path><path d="M796.40576 540.7744h-56.81152v57.9584h56.81152v-57.9584zM796.40576 483.0208h-56.81152v57.7536h56.81152v-57.7536z" fill="#D80027" p-id="3386"></path><path d="M796.40576 425.28768h-56.81152v57.7536h56.81152v-57.7536zM796.40576 367.32928h-56.81152v57.9584h56.81152v-57.9584z" fill="#D80027" p-id="3387"></path><path d="M796.40576 309.59616h-56.81152v57.7536h56.81152v-57.7536zM796.40576 251.65824h-56.81152v57.93792h56.81152v-57.9584z" fill="#D80027" p-id="3388"></path><path d="M796.40576 193.90464h-56.81152v57.7536h56.81152v-57.7536zM796.40576 136.15104h-56.81152v57.7536h56.81152v-57.7536z" fill="#D80027" p-id="3389"></path><path d="M796.40576 78.2336h-56.81152v57.91744h56.81152V78.2336zM739.59424 598.71232H682.5984v57.7536h56.99584v-57.7536z" fill="#000000" p-id="3390"></path><path d="M739.59424 540.7744H682.5984v57.9584h56.99584v-57.9584zM739.59424 483.0208H682.5984v57.7536h56.99584v-57.7536z" fill="#D80027" p-id="3391"></path><path d="M739.59424 425.28768H682.5984v57.7536h56.99584v-57.7536zM739.59424 367.32928H682.5984v57.9584h56.99584v-57.9584z" fill="#D80027" p-id="3392"></path><path d="M739.59424 309.59616H682.5984v57.7536h56.99584v-57.7536zM739.59424 251.65824H682.5984v57.93792h56.99584v-57.9584z" fill="#D80027" p-id="3393"></path><path d="M739.59424 193.90464H682.5984v57.7536h56.99584v-57.7536zM739.59424 136.15104H682.5984v57.7536h56.99584v-57.7536z" fill="#FFFFFF" p-id="3394"></path><path d="M739.59424 78.2336H682.5984v57.91744h56.99584V78.2336zM682.5984 887.82848h-56.79104v57.7536h56.79104v-57.7536z" fill="#000000" p-id="3395"></path><path d="M682.5984 829.89056h-56.79104v57.9584h56.79104v-57.9584z" fill="#000000" p-id="3396"></path><path d="M682.5984 772.15744h-56.79104v57.7536h56.79104v-57.7536zM682.5984 714.40384h-56.79104v57.7536h56.79104v-57.7536zM682.5984 656.46592h-56.79104v57.93792h56.79104v-57.9584z" fill="#000000" p-id="3397"></path><path d="M682.5984 598.71232h-56.79104v57.7536h56.79104v-57.7536z" fill="#000000" p-id="3398"></path><path d="M682.5984 540.7744h-56.79104v57.9584h56.79104v-57.9584zM682.5984 483.0208h-56.79104v57.7536h56.79104v-57.7536z" fill="#D80027" p-id="3399"></path><path d="M682.5984 425.28768h-56.79104v57.7536h56.79104v-57.7536zM682.5984 367.32928h-56.79104v57.9584h56.79104v-57.9584z" fill="#D80027" p-id="3400"></path><path d="M682.5984 309.59616h-56.79104v57.7536h56.79104v-57.7536z" fill="#D80027" p-id="3401"></path><path d="M682.5984 251.65824h-56.79104v57.93792h56.79104v-57.9584z" fill="#FFFFFF" p-id="3402"></path><path d="M682.5984 193.90464h-56.79104v57.7536h56.79104v-57.7536zM682.5984 136.15104h-56.79104v57.7536h56.79104v-57.7536zM682.5984 78.2336h-56.79104v57.91744h56.79104V78.2336z" fill="#FFFFFF" p-id="3403"></path><path d="M682.5984 20.48h-56.79104v57.7536h56.79104V20.48zM625.80736 945.5616h-56.99584V1003.52h56.99584v-57.9584z" fill="#000000" p-id="3404"></path><path d="M625.80736 887.82848h-56.99584v57.7536h56.99584v-57.7536z" fill="#FFF5CC" p-id="3405"></path><path d="M625.80736 829.89056h-56.99584v57.9584h56.99584v-57.9584z" fill="#FFF5CC" p-id="3406"></path><path d="M625.80736 772.15744h-56.99584v57.7536h56.99584v-57.7536zM625.80736 714.40384h-56.99584v57.7536h56.99584v-57.7536zM625.80736 656.46592h-56.99584v57.93792h56.99584v-57.9584z" fill="#FFF5CC" p-id="3407"></path><path d="M625.80736 598.71232h-56.99584v57.7536h56.99584v-57.7536z" fill="#000000" p-id="3408"></path><path d="M625.80736 540.7744h-56.99584v57.9584h56.99584v-57.9584zM625.80736 483.0208h-56.99584v57.7536h56.99584v-57.7536z" fill="#D80027" p-id="3409"></path><path d="M625.80736 425.28768h-56.99584v57.7536h56.99584v-57.7536zM625.80736 367.32928h-56.99584v57.9584h56.99584v-57.9584z" fill="#D80027" p-id="3410"></path><path d="M625.80736 309.59616h-56.99584v57.7536h56.99584v-57.7536z" fill="#D80027" p-id="3411"></path><path d="M625.80736 251.65824h-56.99584v57.93792h56.99584v-57.9584z" fill="#FFFFFF" p-id="3412"></path><path d="M625.80736 193.90464h-56.99584v57.7536h56.99584v-57.7536zM625.80736 136.15104h-56.99584v57.7536h56.99584v-57.7536zM625.80736 78.2336h-56.99584v57.91744h56.99584V78.2336z" fill="#FFFFFF" p-id="3413"></path><path d="M625.80736 20.48h-56.99584v57.7536h56.99584V20.48zM568.81152 945.5616H512V1003.52h56.81152v-57.9584z" fill="#000000" p-id="3414"></path><path d="M568.81152 887.82848H512v57.7536h56.81152v-57.7536z" fill="#FFF5CC" p-id="3415"></path><path d="M568.81152 829.89056H512v57.9584h56.81152v-57.9584z" fill="#FFF5CC" p-id="3416"></path><path d="M568.81152 772.15744H512v57.7536h56.81152v-57.7536zM568.81152 714.40384H512v57.7536h56.81152v-57.7536zM568.81152 656.46592H512v57.93792h56.81152v-57.9584z" fill="#FFF5CC" p-id="3417"></path><path d="M568.81152 598.71232H512v57.7536h56.81152v-57.7536z" fill="#000000" p-id="3418"></path><path d="M568.81152 540.7744H512v57.9584h56.81152v-57.9584zM568.81152 483.0208H512v57.7536h56.81152v-57.7536z" fill="#D80027" p-id="3419"></path><path d="M568.81152 425.28768H512v57.7536h56.81152v-57.7536zM568.81152 367.32928H512v57.9584h56.81152v-57.9584z" fill="#D80027" p-id="3420"></path><path d="M568.81152 309.59616H512v57.7536h56.81152v-57.7536z" fill="#D80027" p-id="3421"></path><path d="M568.81152 251.65824H512v57.93792h56.81152v-57.9584z" fill="#FFFFFF" p-id="3422"></path><path d="M568.81152 193.90464H512v57.7536h56.81152v-57.7536zM568.81152 136.15104H512v57.7536h56.81152v-57.7536zM568.81152 78.2336H512v57.91744h56.81152V78.2336z" fill="#FFFFFF" p-id="3423"></path><path d="M568.81152 20.48H512v57.7536h56.81152V20.48zM512 945.5616h-56.81152V1003.52H512v-57.9584z" fill="#000000" p-id="3424"></path><path d="M512 887.82848h-56.81152v57.7536H512v-57.7536z" fill="#FFF5CC" p-id="3425"></path><path d="M512 829.89056h-56.81152v57.9584H512v-57.9584z" fill="#FFF5CC" p-id="3426"></path><path d="M512 772.15744h-56.81152v57.7536H512v-57.7536zM512 714.40384h-56.81152v57.7536H512v-57.7536zM512 656.46592h-56.81152v57.93792H512v-57.9584z" fill="#FFF5CC" p-id="3427"></path><path d="M512 598.71232h-56.81152v57.7536H512v-57.7536z" fill="#000000" p-id="3428"></path><path d="M512 540.7744h-56.81152v57.9584H512v-57.9584zM512 483.0208h-56.81152v57.7536H512v-57.7536z" fill="#D80027" p-id="3429"></path><path d="M512 425.28768h-56.81152v57.7536H512v-57.7536zM512 367.32928h-56.81152v57.9584H512v-57.9584z" fill="#D80027" p-id="3430"></path><path d="M512 309.59616h-56.81152v57.7536H512v-57.7536zM512 251.65824h-56.81152v57.93792H512v-57.9584z" fill="#D80027" p-id="3431"></path><path d="M512 193.90464h-56.81152v57.7536H512v-57.7536zM512 136.15104h-56.81152v57.7536H512v-57.7536zM512 78.2336h-56.81152v57.91744H512V78.2336z" fill="#FFFFFF" p-id="3432"></path><path d="M512 20.48h-56.81152v57.7536H512V20.48zM455.18848 945.5616h-56.99584V1003.52h56.99584v-57.9584z" fill="#000000" p-id="3433"></path><path d="M455.18848 887.82848h-56.99584v57.7536h56.99584v-57.7536z" fill="#FFF5CC" p-id="3434"></path><path d="M455.18848 829.89056h-56.99584v57.9584h56.99584v-57.9584z" fill="#FFF5CC" p-id="3435"></path><path d="M455.18848 772.15744h-56.99584v57.7536h56.99584v-57.7536zM455.18848 714.40384h-56.99584v57.7536h56.99584v-57.7536zM455.18848 656.46592h-56.99584v57.93792h56.99584v-57.9584z" fill="#FFF5CC" p-id="3436"></path><path d="M455.18848 598.71232h-56.99584v57.7536h56.99584v-57.7536z" fill="#000000" p-id="3437"></path><path d="M455.18848 540.7744h-56.99584v57.9584h56.99584v-57.9584zM455.18848 483.0208h-56.99584v57.7536h56.99584v-57.7536z" fill="#D80027" p-id="3438"></path><path d="M455.18848 425.28768h-56.99584v57.7536h56.99584v-57.7536z" fill="#D80027" p-id="3439"></path><path d="M455.18848 367.32928h-56.99584v57.9584h56.99584v-57.9584z" fill="#FFFFFF" p-id="3440"></path><path d="M455.18848 309.59616h-56.99584v57.7536h56.99584v-57.7536zM455.18848 251.65824h-56.99584v57.93792h56.99584v-57.9584z" fill="#D80027" p-id="3441"></path><path d="M455.18848 193.90464h-56.99584v57.7536h56.99584v-57.7536zM455.18848 136.15104h-56.99584v57.7536h56.99584v-57.7536zM455.18848 78.2336h-56.99584v57.91744h56.99584V78.2336z" fill="#D80027" p-id="3442"></path><path d="M455.18848 20.48h-56.99584v57.7536h56.99584V20.48zM398.19264 887.82848H341.4016v57.7536h56.79104v-57.7536z" fill="#000000" p-id="3443"></path><path d="M398.19264 829.89056H341.4016v57.9584h56.79104v-57.9584z" fill="#000000" p-id="3444"></path><path d="M398.19264 772.15744H341.4016v57.7536h56.79104v-57.7536zM398.19264 714.40384H341.4016v57.7536h56.79104v-57.7536zM398.19264 656.46592H341.4016v57.93792h56.79104v-57.9584z" fill="#000000" p-id="3445"></path><path d="M398.19264 598.71232H341.4016v57.7536h56.79104v-57.7536z" fill="#000000" p-id="3446"></path><path d="M398.19264 540.7744H341.4016v57.9584h56.79104v-57.9584zM398.19264 483.0208H341.4016v57.7536h56.79104v-57.7536z" fill="#D80027" p-id="3447"></path><path d="M398.19264 425.28768H341.4016v57.7536h56.79104v-57.7536zM398.19264 367.32928H341.4016v57.9584h56.79104v-57.9584z" fill="#FFFFFF" p-id="3448"></path><path d="M398.19264 309.59616H341.4016v57.7536h56.79104v-57.7536z" fill="#FFFFFF" p-id="3449"></path><path d="M398.19264 251.65824H341.4016v57.93792h56.79104v-57.9584z" fill="#D80027" p-id="3450"></path><path d="M398.19264 193.90464H341.4016v57.7536h56.79104v-57.7536zM398.19264 136.15104H341.4016v57.7536h56.79104v-57.7536zM398.19264 78.2336H341.4016v57.91744h56.79104V78.2336z" fill="#D80027" p-id="3451"></path><path d="M398.19264 20.48H341.4016v57.7536h56.79104V20.48zM341.4016 598.71232h-56.99584v57.7536h56.99584v-57.7536z" fill="#000000" p-id="3452"></path><path d="M341.4016 540.7744h-56.99584v57.9584h56.99584v-57.9584zM341.4016 483.0208h-56.99584v57.7536h56.99584v-57.7536z" fill="#D80027" p-id="3453"></path><path d="M341.4016 425.28768h-56.99584v57.7536h56.99584v-57.7536zM341.4016 367.32928h-56.99584v57.9584h56.99584v-57.9584z" fill="#FFFFFF" p-id="3454"></path><path d="M341.4016 309.59616h-56.99584v57.7536h56.99584v-57.7536z" fill="#FFFFFF" p-id="3455"></path><path d="M341.4016 251.65824h-56.99584v57.93792h56.99584v-57.9584z" fill="#D80027" p-id="3456"></path><path d="M341.4016 193.90464h-56.99584v57.7536h56.99584v-57.7536zM341.4016 136.15104h-56.99584v57.7536h56.99584v-57.7536z" fill="#D80027" p-id="3457"></path><path d="M341.4016 78.2336h-56.99584v57.91744h56.99584V78.2336zM284.40576 598.71232h-56.81152v57.7536h56.81152v-57.7536z" fill="#000000" p-id="3458"></path><path d="M284.40576 540.7744h-56.81152v57.9584h56.81152v-57.9584zM284.40576 483.0208h-56.81152v57.7536h56.81152v-57.7536z" fill="#D80027" p-id="3459"></path><path d="M284.40576 425.28768h-56.81152v57.7536h56.81152v-57.7536z" fill="#D80027" p-id="3460"></path><path d="M284.40576 367.32928h-56.81152v57.9584h56.81152v-57.9584z" fill="#FFFFFF" p-id="3461"></path><path d="M284.40576 309.59616h-56.81152v57.7536h56.81152v-57.7536zM284.40576 251.65824h-56.81152v57.93792h56.81152v-57.9584z" fill="#D80027" p-id="3462"></path><path d="M284.40576 193.90464h-56.81152v57.7536h56.81152v-57.7536zM284.40576 136.15104h-56.81152v57.7536h56.81152v-57.7536z" fill="#D80027" p-id="3463"></path><path d="M284.40576 78.2336h-56.81152v57.91744h56.81152V78.2336zM227.59424 598.71232H170.8032v57.7536h56.79104v-57.7536z" fill="#000000" p-id="3464"></path><path d="M227.59424 540.7744H170.8032v57.9584h56.79104v-57.9584zM227.59424 483.0208H170.8032v57.7536h56.79104v-57.7536z" fill="#D80027" p-id="3465"></path><path d="M227.59424 425.28768H170.8032v57.7536h56.79104v-57.7536zM227.59424 367.32928H170.8032v57.9584h56.79104v-57.9584z" fill="#D80027" p-id="3466"></path><path d="M227.59424 309.59616H170.8032v57.7536h56.79104v-57.7536zM227.59424 251.65824H170.8032v57.93792h56.79104v-57.9584z" fill="#D80027" p-id="3467"></path><path d="M227.59424 193.90464H170.8032v57.7536h56.79104v-57.7536zM227.59424 136.15104H170.8032v57.7536h56.79104v-57.7536zM170.8032 598.71232H113.80736v57.7536H170.8032v-57.7536z" fill="#000000" p-id="3468"></path><path d="M170.8032 540.7744H113.80736v57.9584H170.8032v-57.9584zM170.8032 483.0208H113.80736v57.7536H170.8032v-57.7536z" fill="#D80027" p-id="3469"></path><path d="M170.8032 425.28768H113.80736v57.7536H170.8032v-57.7536zM170.8032 367.32928H113.80736v57.9584H170.8032v-57.9584z" fill="#D80027" p-id="3470"></path><path d="M170.8032 309.59616H113.80736v57.7536H170.8032v-57.7536zM170.8032 251.65824H113.80736v57.93792H170.8032v-57.9584z" fill="#D80027" p-id="3471"></path><path d="M170.8032 193.90464H113.80736v57.7536H170.8032v-57.7536zM113.80736 598.71232H56.99584v57.7536h56.81152v-57.7536z" fill="#000000" p-id="3472"></path><path d="M113.80736 540.7744H56.99584v57.9584h56.81152v-57.9584zM113.80736 483.0208H56.99584v57.7536h56.81152v-57.7536z" fill="#D80027" p-id="3473"></path><path d="M113.80736 425.28768H56.99584v57.7536h56.81152v-57.7536zM113.80736 367.32928H56.99584v57.9584h56.81152v-57.9584z" fill="#D80027" p-id="3474"></path><path d="M113.80736 309.59616H56.99584v57.7536h56.81152v-57.7536zM113.80736 251.65824H56.99584v57.93792h56.81152v-57.9584zM56.99584 540.7744H0v57.9584h56.99584v-57.9584zM56.99584 483.0208H0v57.7536h56.99584v-57.7536z" fill="#000000" p-id="3475"></path><path d="M56.99584 425.28768H0v57.7536h56.99584v-57.7536zM56.99584 367.32928H0v57.9584h56.99584v-57.9584z" fill="#000000" p-id="3476"></path></svg>